<svg width="210" height="27" viewBox="0 0 210 27" fill="none" xmlns="http://www.w3.org/2000/svg">
<path d="M200.167 14.012C198.127 13.604 196.459 13.16 195.163 12.68C193.891 12.176 192.883 11.504 192.139 10.664C191.419 9.79998 191.059 8.69598 191.059 7.35198C191.059 5.95998 191.419 4.73598 192.139 3.67998C192.883 2.62398 193.915 1.80798 195.235 1.23198C196.579 0.655981 198.127 0.367981 199.879 0.367981C201.559 0.367981 203.095 0.727981 204.487 1.44798C205.903 2.14398 207.019 3.12798 207.835 4.39998C208.651 5.67198 209.059 7.12398 209.059 8.75598H207.727C207.727 7.33998 207.379 6.09198 206.683 5.01198C205.987 3.93198 205.039 3.10398 203.839 2.52798C202.639 1.92798 201.307 1.62798 199.843 1.62798C198.547 1.62798 197.335 1.83198 196.207 2.23998C195.079 2.64798 194.155 3.27198 193.435 4.11198C192.739 4.95198 192.391 6.00798 192.391 7.27998C192.391 8.43198 192.727 9.35598 193.399 10.052C194.071 10.724 194.947 11.24 196.027 11.6C197.107 11.96 198.619 12.344 200.563 12.752C202.531 13.16 204.055 13.556 205.135 13.94C206.239 14.3 207.163 14.912 207.907 15.776C208.675 16.64 209.059 17.852 209.059 19.412C209.059 20.972 208.639 22.292 207.799 23.372C206.983 24.428 205.891 25.22 204.523 25.748C203.155 26.276 201.667 26.54 200.059 26.54C198.067 26.54 196.315 26.168 194.803 25.424C193.291 24.68 192.127 23.636 191.311 22.292C190.519 20.924 190.123 19.364 190.123 17.612H191.455C191.455 19.148 191.791 20.492 192.463 21.644C193.159 22.796 194.155 23.696 195.451 24.344C196.747 24.968 198.283 25.28 200.059 25.28C202.267 25.28 204.091 24.752 205.531 23.696C206.995 22.64 207.727 21.2 207.727 19.376C207.727 18.128 207.415 17.168 206.791 16.496C206.167 15.824 205.375 15.344 204.415 15.056C203.479 14.744 202.063 14.396 200.167 14.012Z" fill="black"/>
<path d="M168.699 0.94397H186.339V2.27597H170.031V12.428H184.215V13.76H170.031V24.668H186.339V26H168.699V0.94397Z" fill="black"/>
<path d="M142.267 26H140.935V0.94397H142.375L151.123 16.388L159.835 0.94397H161.167V26H159.835V3.60797L151.735 17.9H150.475L142.267 3.42797V26Z" fill="black"/>
<path d="M124.078 0.94397H125.482L135.778 26H134.338L130.954 17.72H118.606L115.186 26H113.782L124.078 0.94397ZM119.146 16.424H130.414L124.762 2.67197L119.146 16.424Z" fill="black"/>
<path d="M107.294 20.852C106.646 22.508 105.47 23.876 103.766 24.956C102.062 26.012 100.238 26.54 98.2937 26.54C96.4217 26.54 94.6937 26.072 93.1097 25.136C91.5257 24.2 90.2657 22.916 89.3297 21.284C88.4177 19.628 87.9617 17.816 87.9617 15.848V10.808C87.9617 8.88799 88.4177 7.13599 89.3297 5.55199C90.2657 3.96799 91.5137 2.71999 93.0737 1.80799C94.6577 0.871991 96.3977 0.403992 98.2937 0.403992C99.8537 0.403992 101.282 0.667992 102.578 1.19599C103.874 1.69999 104.978 2.44399 105.89 3.42799C106.634 4.24399 107.234 5.15599 107.69 6.16399C108.17 7.17199 108.41 8.19199 108.41 9.22399H107.114C107.09 8.33599 106.862 7.45999 106.43 6.59599C106.022 5.73199 105.494 4.95199 104.846 4.25599C103.238 2.57599 101.054 1.73599 98.2937 1.73599C96.6377 1.73599 95.1137 2.14399 93.7217 2.95999C92.3537 3.75199 91.2737 4.84399 90.4817 6.23599C89.6897 7.60399 89.2937 9.12799 89.2937 10.808V15.848C89.2937 17.6 89.6897 19.196 90.4817 20.636C91.2977 22.052 92.3897 23.168 93.7577 23.984C95.1497 24.8 96.6617 25.208 98.2937 25.208C99.9497 25.208 101.462 24.812 102.83 24.02C104.222 23.204 105.314 22.112 106.106 20.744C106.898 19.352 107.294 17.84 107.294 16.208V14.948H98.2937V13.616H108.626V26H107.294V20.852Z" fill="black"/>
<path d="M73.9093 13.264C73.9093 12.376 74.2213 11.62 74.8453 10.996C75.4933 10.348 76.2733 10.024 77.1853 10.024C78.0973 10.024 78.8653 10.348 79.4893 10.996C80.1373 11.62 80.4613 12.376 80.4613 13.264C80.4613 14.152 80.1373 14.92 79.4893 15.568C78.8653 16.216 78.0973 16.54 77.1853 16.54C76.2973 16.54 75.5293 16.216 74.8813 15.568C74.2333 14.92 73.9093 14.152 73.9093 13.264Z" fill="black"/>
<path d="M46.1129 26H44.7809V0.94397H46.2209L54.9689 16.388L63.6809 0.94397H65.0129V26H63.6809V3.60797L55.5809 17.9H54.3209L46.1129 3.42797V26Z" fill="black"/>
<path d="M27.9244 0.94397H29.3284L39.6245 26H38.1844L34.8004 17.72H22.4524L19.0324 26H17.6284L27.9244 0.94397ZM22.9925 16.424H34.2604L28.6084 2.67197L22.9925 16.424Z" fill="black"/>
<path d="M20.436 0.94397V2.27597H10.968V26H9.67201V2.27597H0.20401V0.94397H20.436Z" fill="black"/>
</svg>
